<?xml version="1.0" encoding="UTF-8"?>
<svg version="1.1" xmlns="http://www.w3.org/2000/svg" width="500" height="500">
<path d="M0 0 C3.48120756 2.85609909 6.74710916 5.8885392 10 9 C11.09248047 9.96292969 11.09248047 9.96292969 12.20703125 10.9453125 C30.10112159 27.38853065 40.80570551 52.59764684 49 75 C49.3000293 75.81629883 49.60005859 76.63259766 49.90917969 77.47363281 C61.02875262 108.16462418 67.25895278 140.51654484 70 173 C70.56203125 172.855625 71.1240625 172.71125 71.703125 172.5625 C91.21823717 168.25241388 111.97560366 170.4510723 129.25146484 180.84423828 C137.2062719 186.10227467 143.95814942 192.69674255 150.14086914 199.90063477 C153.42064815 203.60422239 156.97189458 207.03500917 160.5 210.5 C165.33983284 215.25325264 170.03125122 220.04610767 174.43798828 225.20703125 C176.02752089 227.03159009 177.68980646 228.76401624 179.375 230.5 C181.91691523 233.51339951 183.015489 235.99651193 183.23828125 239.9453125 C182.68395939 244.72520265 180.41633805 248.62792251 177 251.9375 C173.12360357 253.9968356 169.56746686 254.12297275 165.22167969 254.11352539 C164.0607782 254.11344986 162.89987671 254.11337433 161.70379639 254.11329651 C159.8317453 254.10555458 159.8317453 254.10555458 157.921875 254.09765625 C155.99930878 254.09553383 155.99930878 254.09553383 154.03790283 254.09336853 C150.6381636 254.08955901 147.2384674 254.07974214 143.83874512 254.06866455 C140.366461 254.05841674 136.8941699 254.0538637 133.421875 254.04882812 C126.61456571 254.03811841 119.80728492 254.02106084 113 254 C113.33 254.66 113.66 255.32 114 256 C114.10204956 257.84435756 114.13948884 259.69241864 114.14717102 261.5395813 C114.15790398 263.30595695 114.15790398 263.30595695 114.16885376 265.10801697 C114.17154266 266.40671219 114.17423157 267.70540741 114.17700195 269.04345703 C114.18326602 270.41991854 114.18991277 271.79637835 114.19691467 273.1728363 C114.21797111 277.70114969 114.22832119 282.22946347 114.23828125 286.7578125 C114.24232876 288.31717827 114.24644568 289.87654386 114.25063133 291.43590927 C114.26968956 298.76472082 114.28391705 306.09352229 114.2922433 313.42235386 C114.30200676 321.87650792 114.32830011 330.33039952 114.36874419 338.78446114 C114.39894031 345.321305 114.41371564 351.8580738 114.41702431 358.39498603 C114.41937162 362.29766404 114.42828938 366.20006189 114.45348549 370.10266495 C114.47683149 373.77828664 114.48097359 377.45344505 114.47072411 381.12912178 C114.4699956 383.11239219 114.4890428 385.09563941 114.50878906 387.07881165 C114.46738809 394.2007697 113.90401756 398.97462334 110 405 C105.42694243 409.34998159 101.60185241 410.3787284 95.45703125 410.26953125 C83.47445986 408.95506793 74.24207399 398.79394699 67 390 C65.05011096 387.70109236 63.08726652 385.41334411 61.125 383.125 C60.60526611 382.51664307 60.08553223 381.90828613 59.55004883 381.28149414 C56.52151619 377.74355067 53.44856622 374.25613139 50.3125 370.8125 C46.43533382 366.54128426 42.76666907 362.12617581 39.140625 357.640625 C36.78703366 354.7372897 34.39759831 351.86705812 32 349 C31.28714844 349.845625 30.57429688 350.69125 29.83984375 351.5625 C27.34738727 354.51694298 24.84734488 357.46488076 22.34521484 360.41113281 C21.30357821 361.64143611 20.26938038 362.87803954 19.23828125 364.1171875 C9.95109129 375.0863095 -0.56434827 385.30833003 -12 394 C-12.66451172 394.51385254 -13.32902344 395.02770508 -14.01367188 395.55712891 C-24.7643856 403.84709219 -35.74741776 411.21555766 -47.66455078 417.72070312 C-49.93394039 418.96381431 -52.18381932 420.23744604 -54.43359375 421.515625 C-95.42707939 444.38237371 -149.40580575 459.82644314 -195.98828125 446.93359375 C-212.39015609 442.04224267 -226.92681514 433.07956521 -237 419 C-237.71504715 417.35350986 -238.39404361 415.68968609 -239 414 C-239.62455078 414.01571045 -240.24910156 414.0314209 -240.89257812 414.04760742 C-243.76162417 414.11052044 -246.63052442 414.14916731 -249.5 414.1875 C-250.97339844 414.22520508 -250.97339844 414.22520508 -252.4765625 414.26367188 C-259.6156374 414.33506262 -265.23561425 413.69170238 -271.20703125 409.421875 C-276.25894856 404.1609976 -279.09286822 399.45956427 -279.375 392 C-279.11653296 384.5831196 -276.2204634 379.2204634 -271 374 C-265.00957643 369.59246739 -259.23161046 369.52143754 -252 370 C-252.0825 368.845 -252.165 367.69 -252.25 366.5 C-252.18508347 345.82408672 -240.81798008 325.89231114 -227.15234375 311.1171875 C-214.51113267 298.68245718 -199.29589799 290.31423266 -183.07788086 283.47705078 C-168.03616912 277.117805 -154.71585814 268.51374619 -142.32617188 257.86010742 C-141.70158081 257.32342941 -141.07698975 256.7867514 -140.43347168 256.23381042 C-139.96042603 255.82665298 -139.48738037 255.41949554 -139 255 C-140.18715103 254.99413376 -141.37430206 254.98826752 -142.59742737 254.98222351 C-153.79436594 254.92496897 -164.99111081 254.85219281 -176.18785191 254.76428509 C-181.94398659 254.71958969 -187.70005064 254.68033152 -193.45629883 254.65356445 C-199.01314159 254.6275235 -204.56971238 254.58711497 -210.12638664 254.53681374 C-212.24458364 254.52015048 -214.36282768 254.50863284 -216.48108101 254.50238609 C-219.45195031 254.49273934 -222.42212465 254.46467243 -225.39282227 254.43237305 C-226.70157822 254.43452568 -226.70157822 254.43452568 -228.03677368 254.4367218 C-233.42341594 254.3540939 -237.24499288 253.599279 -242 251 C-245.38680605 246.65794096 -246.8498236 242.92361285 -246.47851562 237.37255859 C-244.91704601 229.63053729 -236.46927181 223.25870254 -231.0625 218 C-226.07240694 213.12227768 -221.22910007 208.22083559 -216.67797852 202.92919922 C-202.58651209 186.72801085 -187.02947794 173.75709699 -165 171 C-146.42860837 169.7699636 -127.40413445 172.16189145 -112.66796875 184.72265625 C-110.62823589 186.55130799 -108.67673915 188.43207314 -106.71875 190.3515625 C-103.91993096 193.07799829 -101.02726757 195.5336673 -98 198 C-86.83295462 165.95057977 -81.7980559 137.09136251 -81.4375 103.0625 C-81.25956206 88.48033956 -81.05797952 73.90317314 -80.55078125 59.328125 C-80.51528671 58.23907364 -80.47979218 57.15002228 -80.44322205 56.02796936 C-79.66424829 35.28510615 -76.50196563 14.56720493 -60.6875 -0.375 C-42.93351745 -14.3678883 -17.75550403 -13.01299155 0 0 Z " fill="#FEF377" transform="translate(298,28)"/>
<path d="M0 0 C3.12736843 2.63143306 6.0396921 5.46483839 8.9375 8.34423828 C10.42735563 9.79234062 11.95744488 11.17577346 13.51611328 12.54931641 C19.29910944 17.65131743 24.42606482 22.95761899 29.20751953 29.03369141 C31.50733032 31.89423345 33.92886466 34.58727136 36.41845703 37.28369141 C40.51196795 41.73096252 44.34288202 46.33086604 48.13720703 51.03369141 C51.28039961 54.82274547 54.62004298 58.41638492 57.95361328 62.03759766 C60.34553 64.70244307 62.61100587 67.43200966 64.85595703 70.22119141 C68.07788805 74.21593127 71.42501198 78.0292349 74.91845703 81.78369141 C79.20800816 86.39373476 83.22256375 91.16152097 87.17236328 96.06884766 C89.50676293 98.89042636 91.93836301 101.58959852 94.41845703 104.28369141 C97.69264126 107.84039385 100.82488136 111.45530951 103.85595703 115.22119141 C107.07788805 119.21593127 110.42501198 123.0292349 113.91845703 126.78369141 C118.20478667 131.39027259 122.21597491 136.15496137 126.16455078 141.05712891 C128.54711331 143.9393276 131.02188172 146.7100094 133.54345703 149.47119141 C134.36716797 150.37482422 135.19087891 151.27845703 136.03955078 152.20947266 C137.55486561 153.84919757 139.08713836 155.4735261 140.64111328 157.07666016 C141.28951172 157.76373047 141.93791016 158.45080078 142.60595703 159.15869141 C143.17701172 159.74392578 143.74806641 160.32916016 144.33642578 160.93212891 C145.41845703 162.78369141 145.41845703 162.78369141 145.43408203 165.06103516 C143.97697535 168.96720192 141.6320753 171.78598672 138.98095703 174.97119141 C138.41328613 175.66027588 137.84561523 176.34936035 137.26074219 177.05932617 C126.89484157 189.3897433 115.30611831 201.09699671 102.41845703 210.78369141 C101.7582959 211.29319336 101.09813477 211.80269531 100.41796875 212.32763672 C89.66259719 220.62281452 78.67715356 227.99591149 66.75390625 234.50439453 C64.48451664 235.74750571 62.23463771 237.02113745 59.98486328 238.29931641 C18.99137764 261.16606512 -34.98734872 276.61013455 -81.56982422 263.71728516 C-97.97169906 258.82593408 -112.5083581 249.86325661 -122.58154297 235.78369141 C-123.29659012 234.13720126 -123.97558658 232.47337749 -124.58154297 230.78369141 C-125.51836914 230.80725708 -125.51836914 230.80725708 -126.47412109 230.83129883 C-129.34316714 230.89421185 -132.21206739 230.93285872 -135.08154297 230.97119141 C-136.06380859 230.99632812 -137.04607422 231.02146484 -138.05810547 231.04736328 C-145.19718037 231.11875403 -150.81715722 230.47539378 -156.78857422 226.20556641 C-161.84049153 220.94468901 -164.67441119 216.24325567 -164.95654297 208.78369141 C-164.69807592 201.366811 -161.80200637 196.00415481 -156.58154297 190.78369141 C-150.5911194 186.3761588 -144.81315343 186.30512895 -137.58154297 186.78369141 C-137.66404297 185.62869141 -137.74654297 184.47369141 -137.83154297 183.28369141 C-137.76662644 162.60777813 -126.39952305 142.67600255 -112.73388672 127.90087891 C-100.09267564 115.46614859 -84.87744096 107.09792407 -68.65942383 100.26074219 C-53.61771209 93.9014964 -40.29740111 85.2974376 -27.90771484 74.64379883 C-27.28312378 74.10712082 -26.65853271 73.57044281 -26.01501465 73.01750183 C-25.30544617 72.40676567 -25.30544617 72.40676567 -24.58154297 71.78369141 C-25.768694 71.77782516 -26.95584503 71.77195892 -28.17897034 71.76591492 C-39.37590891 71.70866037 -50.57265378 71.63588421 -61.76939487 71.54797649 C-67.52552956 71.50328109 -73.2815936 71.46402293 -79.0378418 71.43725586 C-84.59468456 71.41121491 -90.15125535 71.37080638 -95.70792961 71.32050514 C-97.82612661 71.30384188 -99.94437065 71.29232425 -102.06262398 71.2860775 C-105.03349328 71.27643074 -108.00366762 71.24836384 -110.97436523 71.21606445 C-112.28312119 71.21821709 -112.28312119 71.21821709 -113.61831665 71.22041321 C-119.00495891 71.13778531 -122.82653585 70.38297041 -127.58154297 67.78369141 C-130.96834902 63.44163237 -132.43136657 59.70730426 -132.06005859 54.15625 C-130.49858898 46.4142287 -122.05081478 40.04239394 -116.64404297 34.78369141 C-111.65394991 29.90596908 -106.81064304 25.004527 -102.25952148 19.71289062 C-76.96958103 -9.36336566 -34.6239435 -26.6280467 0 0 Z " fill="#FBD43E" transform="translate(183.58154296875,211.21630859375)"/>
<path d="M0 0 C3.48120756 2.85609909 6.74710916 5.8885392 10 9 C10.72832031 9.64195313 11.45664062 10.28390625 12.20703125 10.9453125 C30.10112159 27.38853065 40.80570551 52.59764684 49 75 C49.3000293 75.81629883 49.60005859 76.63259766 49.90917969 77.47363281 C58.89506864 102.27547026 64.26333495 127.9421982 68 154 C68.18248291 155.25458008 68.36496582 156.50916016 68.55297852 157.80175781 C69.11370477 162.38288582 69.12619676 166.92133176 69.09765625 171.53125 C69.09553383 172.84603333 69.09553383 172.84603333 69.09336853 174.18737793 C69.08781768 176.95828821 69.07527461 179.72911457 69.0625 182.5 C69.05747864 184.39062382 69.05291685 186.28124893 69.04882812 188.171875 C69.0378644 192.78128183 69.02063425 197.39062673 69 202 C68.17075705 201.85932413 67.34151409 201.71864826 66.48714256 201.57370949 C57.3958765 200.13935772 48.56888233 199.69439827 39.36572266 199.68115234 C37.85628234 199.67182665 36.34684706 199.66165419 34.8374176 199.65071106 C30.78673351 199.62369412 26.73608361 199.60834693 22.68533373 199.59528303 C18.43458214 199.57952688 14.18389915 199.55277732 9.93319702 199.5272522 C1.90488955 199.48068339 -6.12343115 199.44383416 -14.15180361 199.41057932 C-23.30072725 199.37220206 -32.44958161 199.32283342 -41.59844661 199.27259517 C-60.39891352 199.1696015 -79.19942287 199.08023644 -98 199 C-97.56524353 197.67238396 -97.56524353 197.67238396 -97.1217041 196.31794739 C-96.03296683 192.98692008 -94.94778178 189.65477667 -93.86486816 186.32185364 C-93.39831791 184.88831671 -92.93041653 183.4552187 -92.46105957 182.02259827 C-83.84327496 155.70790568 -81.72989133 130.65806663 -81.4375 103.0625 C-81.25956206 88.48033956 -81.05797952 73.90317314 -80.55078125 59.328125 C-80.51528671 58.23907364 -80.47979218 57.15002228 -80.44322205 56.02796936 C-79.66424829 35.28510615 -76.50196563 14.56720493 -60.6875 -0.375 C-42.93351745 -14.3678883 -17.75550403 -13.01299155 0 0 Z " fill="#FDEFC1" transform="translate(298,28)"/>
<path d="M0 0 C3.6164557 3.04749201 6.97901535 6.32565877 10.30566406 9.68701172 C11.2634375 10.49912109 12.22121094 11.31123047 13.20800781 12.14794922 C15.30566406 14.68701172 15.30566406 14.68701172 15.32910156 17.56982422 C14.17052148 21.09862921 12.71190672 24.31597983 10.93066406 27.56201172 C10.57834717 28.20912109 10.22603027 28.85623047 9.86303711 29.52294922 C2.39012994 42.93709973 -6.78055108 55.83705017 -17.69433594 66.68701172 C-18.35709534 67.36919266 -19.01985474 68.0513736 -19.70269775 68.75422668 C-23.88794358 71.45815677 -27.26349874 71.24192483 -32.14697266 71.1887207 C-33.09230865 71.19412369 -34.03764465 71.19952667 -35.0116272 71.20509338 C-38.13274569 71.21758747 -41.25294283 71.20108221 -44.37402344 71.18310547 C-46.54729257 71.18326047 -48.72056197 71.18474957 -50.89382935 71.18751526 C-55.44838687 71.18889965 -60.00262965 71.17633619 -64.55712891 71.15356445 C-70.38679355 71.12521381 -76.21593391 71.12790759 -82.04563713 71.14065456 C-86.53415377 71.14762082 -91.02254992 71.13981101 -95.51105118 71.12739754 C-97.65997988 71.12288988 -99.80892156 71.12254023 -101.95785141 71.12646294 C-104.96647232 71.12938351 -107.97437957 71.11282606 -110.98291016 71.09106445 C-112.30793549 71.09781693 -112.30793549 71.09781693 -113.659729 71.10470581 C-119.07885129 71.03980199 -122.91385731 70.30858383 -127.69433594 67.68701172 C-131.08114199 63.34495268 -132.54415954 59.61062457 -132.17285156 54.05957031 C-130.61138194 46.31754901 -122.16360774 39.94571426 -116.75683594 34.68701172 C-111.76674288 29.8092894 -106.92343601 24.90784731 -102.37231445 19.61621094 C-77.07332328 -9.47045111 -34.57767082 -26.7952037 0 0 Z " fill="#F8C13B" transform="translate(183.6943359375,211.31298828125)"/>
<path d="M0 0 C7.15429424 5.25879253 13.36805318 11.1743483 19.14086914 17.90063477 C22.42064815 21.60422239 25.97189458 25.03500917 29.5 28.5 C34.33983284 33.25325264 39.03125122 38.04610767 43.43798828 43.20703125 C45.02752089 45.03159009 46.68980646 46.76401624 48.375 48.5 C50.91691523 51.51339951 52.015489 53.99651193 52.23828125 57.9453125 C51.68395939 62.72520265 49.41633805 66.62792251 46 69.9375 C42.09454558 72.01227266 38.50823444 72.12288084 34.12988281 72.11352539 C32.94896057 72.11344986 31.76803833 72.11337433 30.55133057 72.11329651 C29.28142273 72.10813522 28.01151489 72.10297394 26.703125 72.09765625 C25.39921814 72.0962413 24.09531128 72.09482635 22.75189209 72.09336853 C19.29296945 72.08955867 15.83408909 72.07974151 12.37518311 72.06866455 C8.84257581 72.05841746 5.30996164 72.05386385 1.77734375 72.04882812 C-5.14845482 72.03811782 -12.07422538 72.02105984 -19 72 C-19.30848877 70.90526367 -19.61697754 69.81052734 -19.93481445 68.68261719 C-24.96654084 51.2866601 -35.01001643 35.13713347 -51 26 C-54.63 24.35 -58.26 22.7 -62 21 C-62 11.1 -62 1.2 -62 -9 C-40.12437224 -12.64593796 -19.18013237 -12.6778479 0 0 Z " fill="#F8C13B" transform="translate(429,210)"/>
<path d="M0 0 C5.20883026 3.87323276 9.01348215 8.50503965 13.046875 13.57421875 C14.92860787 16.00015186 14.92860787 16.00015186 17 18 C16.86644776 23.65092896 14.17577104 27.26820415 11 31.6875 C10.50306641 32.39229492 10.00613281 33.09708984 9.49414062 33.82324219 C2.08355873 44.22747144 -6.25913943 53.71116499 -15 63 C-15.61617187 63.65871094 -16.23234375 64.31742187 -16.8671875 64.99609375 C-21.83848941 70.14579166 -27.36958916 74.59420352 -33 79 C-33.5465625 79.42829102 -34.093125 79.85658203 -34.65625 80.29785156 C-72.14571532 109.41608969 -132.25061178 136.70880994 -181 131 C-184.56433942 129.39737724 -186.38118948 126.99547779 -188.4375 123.6875 C-189.22695862 119.91564213 -189.16531087 116.69015108 -188 113 C-184.64686633 108.83123922 -181.50462861 106.36280682 -176.1887207 105.59277344 C-175.11195068 105.51575195 -174.03518066 105.43873047 -172.92578125 105.359375 C-171.7133374 105.26172852 -170.50089355 105.16408203 -169.25170898 105.06347656 C-167.95177002 104.9600293 -166.65183105 104.85658203 -165.3125 104.75 C-112.38208839 100.09238591 -58.71485552 75.96552974 -23.5703125 35.34765625 C-18.17349568 28.89234773 -13.26269981 22.09991419 -8.5625 15.125 C-7.96091064 14.23397583 -7.96091064 14.23397583 -7.34716797 13.32495117 C-4.52553604 9.04124423 -2.22870121 4.619859 0 0 Z " fill="#F9C23C" transform="translate(258,294)"/>
<path d="M0 0 C0.12375 1.21171875 0.2475 2.4234375 0.375 3.671875 C1.83359881 16.05874489 5.08064444 26.66934069 10.19970703 38.02734375 C10.99974978 39.99938324 11.53538106 41.92574615 12 44 C8.66683723 44.08811914 5.33397953 44.14076197 2 44.1875 C0.59814453 44.22520508 0.59814453 44.22520508 -0.83203125 44.26367188 C-7.82661916 44.33704168 -13.35893955 43.60351933 -19.20703125 39.421875 C-24.25894856 34.1609976 -27.09286822 29.45956427 -27.375 22 C-27.11653296 14.5831196 -24.2204634 9.2204634 -19 4 C-13.00957643 -0.40753261 -7.23161046 -0.47856246 0 0 Z " fill="#F2AD60" transform="translate(46,398)"/>
</svg>
